<?xml version="1.0" encoding="UTF-8"?><svg id="a" xmlns="http://www.w3.org/2000/svg" viewBox="0 0 559.34 559.34"><defs><style>.b{fill:none;stroke-miterlimit:10;stroke-width:26px;}</style></defs><path class="b" d="M75.3,149.54l-4.06-4.13c-11.26-11.26-11.26-29.55,0-40.81l33.44-33.36c11.26-11.26,29.47-11.26,40.73,0"/><path class="b" d="M413.93,488.09c11.25,11.26,29.47,11.26,40.72,0l33.44-33.44c11.26-11.26,11.26-29.47,0-40.72"/><path class="b" d="M521.95,332.15c15.97,0,28.89-12.92,28.89-28.89v-47.27c0-15.89-12.92-28.8-28.89-28.8"/><path class="b" d="M37.39,332.15c-15.98,0-28.89-12.92-28.89-28.89v-47.27c0-15.89,12.91-28.8,28.89-28.8"/><path class="b" d="M37.39,227.19c74.16-.75,86.74-26.66,37.91-77.65l-4.06-4.13"/><path class="b" d="M521.95,332.15c15.97,0,28.89-12.92,28.89-28.89v-47.27c0-15.89-12.92-28.8-28.89-28.8"/><path class="b" d="M37.39,332.15c-15.98,0-28.89-12.92-28.89-28.89v-47.27c0-15.89,12.91-28.8,28.89-28.8"/><path class="b" d="M149.55,484.04l-4.14,4.05c-11.26,11.26-29.47,11.26-40.73,0l-33.44-33.44c-11.26-11.26-11.26-29.47,0-40.72"/><path class="b" d="M413.93,71.24c11.25-11.26,29.47-11.26,40.72,0l33.44,33.36c11.26,11.26,11.26,29.55,0,40.81"/><path class="b" d="M37.39,332.15c75.82,.08,87.16,27.39,33.85,81.78"/><path class="b" d="M149.55,484.04l-4.14,4.05c-11.26,11.26-29.47,11.26-40.73,0l-33.44-33.44c-11.26-11.26-11.26-29.47,0-40.72"/><path class="b" d="M413.93,71.24c11.25-11.26,29.47-11.26,40.72,0l33.44,33.36c11.26,11.26,11.26,29.55,0,40.81"/><path class="b" d="M227.19,521.95c0,15.97,12.91,28.89,28.89,28.89h47.18c15.97,0,28.89-12.92,28.89-28.89"/><path class="b" d="M227.19,37.3c0-15.89,12.91-28.8,28.89-28.8h47.18c15.97,0,28.89,12.91,28.89,28.8"/><path class="b" d="M145.41,488.09l4.14-4.05c51.07-48.84,76.89-36.26,77.64,37.91"/><path class="b" d="M227.19,521.95c0,15.97,12.91,28.89,28.89,28.89h47.18c15.97,0,28.89-12.92,28.89-28.89"/><path class="b" d="M227.19,37.3c0-15.89,12.91-28.8,28.89-28.8h47.18c15.97,0,28.89,12.91,28.89,28.8"/><path class="b" d="M75.3,149.54l-4.06-4.13c-11.26-11.26-11.26-29.55,0-40.81l33.44-33.36c11.26-11.26,29.47-11.26,40.73,0"/><path class="b" d="M413.93,488.09c11.25,11.26,29.47,11.26,40.72,0l33.44-33.44c11.26-11.26,11.26-29.47,0-40.72"/><path class="b" d="M332.15,521.95c.08-75.91,27.39-87.16,81.78-33.86"/><path class="b" d="M75.3,149.54l-4.06-4.13c-11.26-11.26-11.26-29.55,0-40.81l33.44-33.36c11.26-11.26,29.47-11.26,40.73,0"/><path class="b" d="M413.93,488.09c11.25,11.26,29.47,11.26,40.72,0l33.44-33.44c11.26-11.26,11.26-29.47,0-40.72"/><path class="b" d="M521.95,332.15c15.97,0,28.89-12.92,28.89-28.89v-47.27c0-15.89-12.92-28.8-28.89-28.8"/><path class="b" d="M37.39,332.15c-15.98,0-28.89-12.92-28.89-28.89v-47.27c0-15.89,12.91-28.8,28.89-28.8"/><path class="b" d="M488.09,413.93c-53.55-53.81-42.29-81.04,33.86-81.78"/><path class="b" d="M521.95,332.15c15.97,0,28.89-12.92,28.89-28.89v-47.27c0-15.89-12.92-28.8-28.89-28.8"/><path class="b" d="M37.39,332.15c-15.98,0-28.89-12.92-28.89-28.89v-47.27c0-15.89,12.91-28.8,28.89-28.8"/><path class="b" d="M149.55,484.04l-4.14,4.05c-11.26,11.26-29.47,11.26-40.73,0l-33.44-33.44c-11.26-11.26-11.26-29.47,0-40.72"/><path class="b" d="M413.93,71.24c11.25-11.26,29.47-11.26,40.72,0l33.44,33.36c11.26,11.26,11.26,29.55,0,40.81"/><path class="b" d="M521.95,227.19c-75.82-.17-87.16-27.4-33.86-81.78"/><path class="b" d="M149.55,484.04l-4.14,4.05c-11.26,11.26-29.47,11.26-40.73,0l-33.44-33.44c-11.26-11.26-11.26-29.47,0-40.72"/><path class="b" d="M413.93,71.24c11.25-11.26,29.47-11.26,40.72,0l33.44,33.36c11.26,11.26,11.26,29.55,0,40.81"/><path class="b" d="M227.19,521.95c0,15.97,12.91,28.89,28.89,28.89h47.18c15.97,0,28.89-12.92,28.89-28.89"/><path class="b" d="M227.19,37.3c0-15.89,12.91-28.8,28.89-28.8h47.18c15.97,0,28.89,12.91,28.89,28.8"/><path class="b" d="M332.15,37.3c.74,76.16,27.97,87.5,81.78,33.94"/><path class="b" d="M227.19,521.95c0,15.97,12.91,28.89,28.89,28.89h47.18c15.97,0,28.89-12.92,28.89-28.89"/><path class="b" d="M227.19,37.3c0-15.89,12.91-28.8,28.89-28.8h47.18c15.97,0,28.89,12.91,28.89,28.8"/><path class="b" d="M75.3,149.54l-4.06-4.13c-11.26-11.26-11.26-29.55,0-40.81l33.44-33.36c11.26-11.26,29.47-11.26,40.73,0"/><path class="b" d="M413.93,488.09c11.25,11.26,29.47,11.26,40.72,0l33.44-33.44c11.26-11.26,11.26-29.47,0-40.72"/><path class="b" d="M145.41,71.24c54.38,53.31,81.7,41.97,81.78-33.94"/><path class="b" d="M359.76,279.67c0,44.23-35.86,80.09-80.09,80.09s-80.1-35.86-80.1-80.09,35.86-80.1,80.1-80.1,80.09,35.86,80.09,80.1Z"/></svg>